<?xml version="1.0" standalone="no"?>
<!DOCTYPE svg PUBLIC "-//W3C//DTD SVG 20010904//EN"
 "http://www.w3.org/TR/2001/REC-SVG-20010904/DTD/svg10.dtd">
<svg version="1.0" xmlns="http://www.w3.org/2000/svg"
 width="600.000000pt" height="600.000000pt" viewBox="0 0 600.000000 600.000000"
 preserveAspectRatio="xMidYMid meet">
<g transform="translate(0.000000,600.000000) scale(0.100000,-0.100000)"
fill="#000000" stroke="none">
<path d="M2410 5612 c-135 -75 -376 -217 -510 -301 -383 -241 -686 -492 -758
-629 -44 -83 -68 -221 -42 -237 6 -3 47 20 93 53 45 33 105 73 132 89 28 17
160 99 295 183 430 267 751 465 877 539 154 91 163 101 163 198 0 82 -14 120
-54 147 -44 28 -84 20 -196 -42z m184 20 c30 -18 35 -38 39 -147 1 -52 -14
-93 -34 -91 -4 1 -16 -8 -28 -18 -12 -11 -21 -16 -21 -12 0 4 -10 -2 -22 -13
-11 -11 -24 -18 -28 -16 -4 3 -15 -4 -25 -15 -14 -16 -20 -17 -27 -8 -6 10 -8
9 -8 -4 0 -10 -27 -31 -74 -55 -40 -21 -115 -65 -167 -97 -52 -33 -99 -59
-106 -59 -7 0 -10 -3 -8 -7 4 -6 -49 -42 -61 -40 -3 1 -13 -7 -22 -17 -17 -18
-34 -26 -64 -27 -14 0 -15 -3 -5 -16 6 -8 7 -12 2 -7 -4 4 -16 0 -26 -9 -10
-9 -26 -14 -35 -10 -11 4 -15 2 -11 -8 4 -10 -2 -17 -16 -22 -12 -3 -36 -17
-54 -30 -17 -13 -36 -24 -41 -24 -5 0 -15 -6 -22 -14 -6 -8 -19 -12 -27 -9
-12 5 -14 3 -8 -7 6 -10 4 -12 -9 -7 -10 4 -15 3 -11 -3 6 -10 -62 -60 -82
-60 -7 0 -13 -5 -13 -11 0 -5 -4 -8 -9 -4 -5 3 -17 -3 -27 -12 -10 -10 -21
-18 -25 -18 -5 0 -17 -8 -29 -17 -11 -10 -20 -15 -20 -12 0 3 -7 -2 -16 -11
-9 -9 -23 -14 -30 -11 -7 3 -11 0 -8 -7 6 -17 -70 -58 -93 -50 -16 6 -16 5 -4
-11 8 -9 10 -16 5 -15 -16 4 -58 -18 -87 -45 -16 -15 -34 -23 -40 -20 -7 4 -9
4 -5 -1 10 -10 -21 -34 -45 -35 -9 0 -16 -3 -15 -7 2 -5 -1 -9 -7 -10 -10 -2
-10 19 -1 85 5 41 45 142 56 142 5 0 18 16 30 35 12 19 28 35 36 35 9 0 12 5
9 10 -6 9 8 14 28 11 4 0 7 6 7 15 0 28 130 140 145 126 5 -4 5 -2 1 5 -4 7 3
17 15 24 12 6 55 38 94 70 39 33 77 59 83 59 7 0 12 5 12 11 0 6 9 9 20 6 11
-3 18 -1 14 4 -3 5 1 9 8 9 9 0 9 3 -2 10 -13 8 -12 10 5 11 11 1 26 2 32 2 7
-1 10 3 8 8 -3 4 7 16 22 26 15 10 30 20 33 24 14 16 84 57 92 53 4 -3 8 0 8
5 0 6 7 11 15 11 8 0 15 5 15 10 0 6 7 10 16 10 8 0 12 4 9 10 -3 5 0 7 7 5 8
-3 25 6 38 20 13 14 32 25 42 25 13 0 17 4 12 13 -4 6 -4 9 1 5 5 -5 23 3 40
17 18 13 44 27 59 31 15 4 30 12 33 20 2 7 11 10 18 8 7 -3 19 4 25 16 6 11
15 18 20 15 6 -3 19 3 31 14 12 11 26 18 31 15 4 -3 8 -1 8 5 0 5 32 26 72 46
40 21 88 48 107 61 42 29 75 30 115 6z"/>
<path d="M3434 5636 c-33 -33 -34 -36 -34 -115 0 -112 10 -127 122 -191 108
-62 476 -292 723 -451 94 -60 224 -144 290 -187 66 -42 172 -112 235 -154
l115 -77 14 27 c23 43 19 149 -7 203 -77 159 -446 448 -974 762 -409 244 -419
248 -484 183z m124 -2 c12 -8 22 -12 22 -9 0 4 13 -3 29 -14 16 -12 32 -21 36
-21 18 0 65 -43 58 -53 -5 -8 -2 -8 8 0 13 10 19 9 35 -5 10 -10 24 -20 29
-23 6 -2 9 -8 7 -12 -1 -5 2 -6 8 -2 5 3 30 -8 54 -24 25 -17 49 -31 54 -31 5
0 17 -9 27 -20 10 -12 25 -18 32 -16 8 4 17 -5 23 -19 5 -14 12 -25 14 -25 3
0 3 7 -1 16 -5 14 -3 14 15 3 11 -7 18 -17 15 -23 -3 -5 -1 -6 5 -2 13 8 84
-39 74 -49 -4 -5 0 -6 9 -2 9 3 26 -4 40 -17 13 -12 38 -27 54 -34 17 -7 44
-24 59 -37 16 -14 34 -25 40 -25 6 0 22 -12 35 -25 12 -14 28 -22 34 -18 5 3
7 2 4 -3 -3 -6 8 -19 24 -29 16 -11 29 -23 29 -27 0 -5 7 -8 16 -8 8 0 12 -4
9 -10 -3 -5 1 -10 10 -10 22 0 106 -65 97 -75 -4 -5 -2 -6 3 -2 6 3 31 -10 54
-29 24 -19 40 -34 36 -34 -4 0 11 -14 34 -30 23 -17 44 -37 48 -45 3 -8 9 -12
14 -9 5 3 9 1 9 -4 0 -5 12 -22 27 -38 59 -63 87 -98 73 -89 -12 6 -13 5 -2
-6 6 -7 12 -21 12 -32 0 -10 4 -16 9 -13 11 7 18 -62 13 -111 -3 -19 -11 -37
-18 -40 -17 -6 -87 45 -79 58 4 5 -2 6 -11 2 -11 -4 -15 -3 -10 5 3 6 1 14 -5
18 -8 4 -9 3 -5 -4 11 -17 -9 -15 -24 3 -7 8 -16 15 -20 15 -14 0 -220 141
-220 151 0 5 -5 9 -11 9 -5 0 -7 -6 -4 -12 4 -7 -1 -4 -9 6 -9 11 -16 17 -16
13 0 -8 -16 4 -52 38 -13 12 -18 14 -14 5 5 -9 2 -9 -7 2 -8 10 -17 15 -20 11
-4 -3 -7 1 -7 11 0 9 -6 16 -12 15 -26 -3 -37 1 -33 14 3 7 -4 13 -21 13 -14
1 -34 10 -44 20 -32 32 -49 44 -60 44 -14 0 -70 51 -65 60 2 4 -7 5 -20 2 -16
-3 -25 0 -25 9 0 7 -3 9 -6 6 -4 -4 -19 4 -35 16 -15 12 -45 33 -67 46 -29 17
-38 28 -35 42 6 20 -13 27 -19 8 -4 -12 -58 8 -58 22 0 4 -11 10 -25 13 -14 4
-23 11 -20 15 3 5 -9 14 -26 20 -18 6 -56 27 -85 46 -29 19 -57 35 -63 35 -6
0 -11 4 -11 10 0 5 -11 12 -25 16 -14 3 -22 11 -18 17 4 6 0 8 -10 4 -10 -3
-17 -3 -17 2 0 4 -18 16 -40 26 -22 10 -40 21 -40 25 0 4 -9 10 -20 13 -28 7
-40 47 -40 131 0 92 18 113 105 125 6 0 21 -6 33 -15z"/>
<path d="M3453 5485 c0 -27 2 -38 4 -22 2 15 2 37 0 50 -2 12 -4 0 -4 -28z"/>
<path d="M2712 5560 c0 -14 2 -19 5 -12 2 6 2 18 0 25 -3 6 -5 1 -5 -13z"/>
<path d="M4358 5243 c7 -3 16 -2 19 1 4 3 -2 6 -13 5 -11 0 -14 -3 -6 -6z"/>
<path d="M4566 5093 c-13 -13 -4 -22 83 -87 132 -97 234 -203 273 -284 30 -61
33 -75 33 -157 0 -85 -2 -96 -37 -166 -21 -40 -74 -123 -119 -184 -240 -326
-368 -625 -408 -955 -10 -79 -7 -309 5 -354 5 -23 3 -26 -18 -26 -34 0 -135
-52 -185 -95 -95 -81 -155 -217 -155 -347 2 -191 99 -344 270 -426 63 -30 87
-36 166 -40 227 -12 412 114 481 327 20 63 23 185 5 251 -45 167 -195 312
-347 336 l-42 6 -7 67 c-10 98 3 313 26 416 61 273 167 489 401 815 103 144
148 257 149 371 0 70 -34 187 -74 255 -40 69 -131 158 -200 197 -57 32 -152
65 -208 72 -24 4 -52 8 -64 10 -12 3 -24 2 -28 -2z m140 -43 c32 -11 67 -23
77 -25 41 -9 57 -17 57 -26 0 -6 4 -8 9 -4 5 3 15 -1 23 -8 7 -7 15 -13 18
-13 3 1 19 -9 35 -22 17 -13 25 -21 19 -18 -6 3 -11 -1 -11 -8 0 -8 6 -12 14
-9 7 3 13 0 13 -7 0 -6 4 -9 9 -6 5 4 22 -14 38 -39 15 -25 31 -45 36 -45 4 0
7 -7 7 -15 0 -8 4 -15 10 -15 5 0 7 -7 4 -15 -4 -8 -1 -15 5 -15 6 0 11 -17
11 -37 0 -26 3 -34 9 -24 6 9 12 -2 20 -38 14 -65 14 -98 1 -106 -8 -5 -7 -12
2 -23 7 -9 9 -13 3 -10 -6 4 -11 -14 -12 -44 -1 -43 -16 -89 -53 -158 -5 -8
-13 -14 -18 -13 -5 1 -8 -6 -5 -16 6 -22 -35 -73 -51 -64 -6 3 -8 3 -4 -2 10
-10 -27 -81 -52 -98 -11 -7 -17 -17 -13 -20 3 -4 0 -7 -7 -7 -7 0 -11 -3 -7
-6 3 -3 -2 -14 -11 -24 -32 -35 -41 -48 -36 -52 2 -3 -5 -13 -16 -23 -11 -10
-20 -23 -20 -28 0 -6 -6 -18 -14 -26 -17 -19 -78 -139 -74 -145 2 -2 -5 -12
-14 -22 -9 -11 -16 -21 -16 -24 0 -3 -9 -25 -20 -50 -45 -99 -89 -235 -94
-290 -1 -8 -10 -23 -20 -34 -10 -11 -18 -24 -18 -30 0 -5 7 -1 16 10 14 17 15
17 10 1 -3 -10 -6 -23 -6 -28 0 -6 -4 -7 -10 -4 -5 3 -10 2 -10 -4 0 -5 5 -11
10 -13 7 -2 7 -22 1 -58 -14 -82 -22 -332 -11 -325 6 4 10 -1 10 -10 0 -23 34
-48 72 -52 18 -2 38 -10 44 -18 7 -10 18 -13 29 -8 14 5 16 3 10 -7 -5 -9 -4
-11 4 -6 7 5 28 -4 49 -21 20 -15 40 -27 45 -25 4 1 6 -1 5 -5 -2 -5 9 -19 22
-33 50 -52 70 -84 64 -105 -4 -14 -3 -16 4 -7 7 11 10 9 15 -7 3 -12 5 -22 4
-24 0 -1 5 -12 12 -24 10 -20 24 -96 22 -128 -2 -77 -4 -94 -11 -90 -4 2 -7
-8 -7 -23 0 -39 -13 -86 -24 -90 -5 -2 -9 -10 -9 -18 0 -8 -5 -14 -11 -14 -5
0 -7 -4 -4 -10 3 -5 2 -10 -3 -10 -5 0 -12 -9 -15 -20 -4 -14 -10 -18 -24 -14
-14 6 -16 4 -6 -6 9 -10 7 -17 -12 -32 -14 -11 -30 -16 -37 -12 -7 4 -10 3 -5
-1 8 -10 -21 -45 -38 -45 -7 0 -20 -8 -29 -19 -9 -10 -31 -22 -49 -26 -18 -4
-39 -10 -47 -12 -33 -10 -178 -11 -215 -2 -22 5 -44 11 -50 12 -25 6 -75 33
-75 39 0 5 -6 8 -14 8 -21 0 -109 83 -131 124 -11 20 -24 36 -28 36 -5 0 -6
11 -3 24 4 16 1 26 -9 30 -8 3 -15 16 -15 29 0 13 -3 27 -7 31 -8 8 -15 55
-14 96 0 14 1 42 1 63 1 23 5 35 11 31 6 -3 10 0 8 7 -5 40 2 69 17 69 9 0 14
6 11 13 -7 18 37 102 52 99 7 -1 10 2 7 6 -3 5 4 18 15 28 17 16 22 16 30 4 8
-11 9 -9 4 8 -5 16 -2 22 9 22 9 0 16 5 16 11 0 5 5 7 10 4 6 -3 10 0 10 7 0
13 71 51 118 63 33 9 43 44 33 122 -8 67 2 304 16 373 4 19 7 41 6 48 -1 10 2
10 15 0 13 -11 14 -10 4 9 -15 27 -15 36 -2 28 5 -3 7 0 4 9 -3 8 0 31 6 51
12 35 18 60 19 80 1 6 6 3 12 -5 9 -12 10 -12 5 4 -8 22 21 116 35 116 6 0 7
4 4 10 -6 10 19 65 43 93 10 12 11 17 3 17 -8 0 -7 5 3 16 9 8 16 21 16 28 0
8 7 19 15 26 8 7 13 15 10 19 -2 4 5 14 16 21 10 8 19 25 19 37 0 13 3 23 8
23 4 0 13 13 20 29 7 16 25 45 40 65 15 19 38 52 52 72 14 20 40 52 59 71 19
18 31 36 27 40 -10 10 35 53 48 46 7 -4 7 -1 -1 8 -9 12 -6 24 18 62 40 64 57
145 48 227 -8 65 -44 150 -81 189 -10 11 -18 24 -18 29 0 11 -97 102 -109 102
-5 0 -18 15 -30 33 -11 17 -21 28 -21 22 0 -6 -3 -6 -8 0 -4 6 -22 21 -40 34
-18 12 -30 27 -27 32 4 5 0 6 -8 3 -8 -3 -18 -1 -22 5 -10 17 26 13 91 -9z"/>
<path d="M4928 4353 c7 -3 16 -2 19 1 4 3 -2 6 -13 5 -11 0 -14 -3 -6 -6z"/>
<path d="M4710 4040 c0 -5 5 -10 11 -10 5 0 7 5 4 10 -3 6 -8 10 -11 10 -2 0
-4 -4 -4 -10z"/>
<path d="M4565 3760 c-3 -5 -1 -10 4 -10 6 0 11 5 11 10 0 6 -2 10 -4 10 -3 0
-8 -4 -11 -10z"/>
<path d="M4530 3681 c0 -6 4 -13 10 -16 6 -3 7 1 4 9 -7 18 -14 21 -14 7z"/>
<path d="M4441 2768 c-24 -4 -48 -5 -54 -1 -6 4 -7 1 -2 -7 5 -8 3 -11 -6 -8
-8 3 -23 -2 -33 -11 -16 -13 -18 -13 -12 -1 4 8 -1 5 -11 -8 -14 -17 -24 -21
-38 -16 -18 7 -18 6 -6 -9 10 -12 10 -17 1 -17 -6 0 -21 -10 -32 -22 -11 -13
-17 -17 -13 -10 3 6 1 12 -4 12 -6 0 -11 -10 -11 -22 0 -13 -4 -29 -9 -37 -7
-11 -11 -10 -21 5 -11 18 -11 18 -5 -1 7 -23 8 -25 6 -43 0 -7 -5 -11 -9 -8
-4 2 -8 -3 -9 -12 -1 -9 -5 -48 -10 -87 -8 -70 9 -175 28 -175 5 0 5 -7 2 -17
-4 -10 -2 -14 4 -10 6 4 16 -6 22 -23 5 -17 15 -30 20 -30 6 0 11 -7 11 -16 0
-8 4 -13 9 -10 5 3 11 -4 14 -15 4 -15 11 -20 22 -16 9 4 24 -2 36 -14 11 -11
36 -23 55 -26 19 -3 34 -9 34 -14 0 -5 -8 -6 -17 -3 -15 5 -16 4 -3 -5 21 -15
43 -14 34 2 -6 10 -4 10 7 0 16 -15 33 -17 24 -3 -3 5 0 8 7 5 32 -10 88 -12
88 -2 0 6 3 8 6 4 4 -3 18 0 33 7 14 7 31 12 37 9 6 -2 19 6 29 17 10 11 24
20 32 20 7 0 13 3 13 8 0 4 12 15 26 26 22 15 28 16 36 5 7 -10 8 -8 4 7 -4
13 1 28 14 42 11 12 20 24 20 27 0 3 6 20 14 39 7 18 17 47 21 64 3 18 11 34
16 37 5 4 9 11 9 16 0 6 -4 8 -9 5 -4 -3 -11 20 -15 50 -3 31 -12 68 -20 82
-7 15 -12 37 -11 49 1 13 -3 19 -11 16 -7 -2 -15 5 -19 16 -3 12 -11 21 -16
21 -5 0 -9 7 -9 15 0 8 -7 15 -15 15 -9 0 -18 7 -21 15 -4 8 -12 15 -20 15 -8
0 -14 8 -15 18 0 9 -3 12 -5 6 -4 -9 -13 -8 -34 2 -57 29 -129 36 -209 22z
m203 -43 c68 -32 122 -86 155 -155 21 -45 26 -69 26 -135 0 -66 -5 -90 -26
-135 -33 -69 -87 -123 -158 -157 -78 -38 -191 -38 -271 -1 -66 30 -122 85
-158 153 -24 44 -27 61 -27 140 1 77 5 97 27 140 82 159 273 225 432 150z"/>
<path d="M4436 2650 c-44 -14 -94 -51 -124 -94 -24 -35 -27 -48 -27 -122 0
-75 3 -86 30 -125 66 -94 190 -124 293 -73 82 41 122 108 122 206 0 142 -153
250 -294 208z m158 -32 c21 -5 36 -12 32 -15 -7 -7 14 -27 39 -37 15 -5 17 -9
6 -15 -11 -7 -9 -11 7 -20 21 -11 38 -66 33 -106 -7 -52 -11 -65 -34 -102 -47
-74 -123 -103 -217 -83 -55 12 -61 15 -56 34 4 18 3 19 -7 5 -11 -14 -14 -13
-36 7 -13 12 -21 27 -17 32 4 6 -3 16 -14 22 -16 8 -20 21 -21 58 0 37 -2 43
-10 27 -13 -28 -1 49 13 84 6 14 10 31 9 36 -2 6 1 7 5 3 8 -8 44 29 44 45 0
5 9 7 21 4 17 -5 18 -3 7 11 -7 9 -9 14 -4 10 4 -3 22 0 39 7 33 14 88 12 161
-7z"/>
<path d="M4595 2601 c-3 -5 -1 -12 5 -16 5 -3 10 1 10 9 0 18 -6 21 -15 7z"/>
<path d="M4692 2420 c0 -14 2 -19 5 -12 2 6 2 18 0 25 -3 6 -5 1 -5 -13z"/>
<path d="M4875 2239 c-4 -6 -5 -12 -2 -15 2 -3 7 2 10 11 7 17 1 20 -8 4z"/>
<path d="M4735 2160 c-3 -6 1 -7 9 -4 18 7 21 14 7 14 -6 0 -13 -4 -16 -10z"/>
<path d="M4205 2120 c3 -5 8 -10 11 -10 2 0 4 5 4 10 0 6 -5 10 -11 10 -5 0
-7 -4 -4 -10z"/>
<path d="M1390 5075 c-140 -28 -253 -88 -348 -186 -68 -69 -115 -153 -143
-253 -18 -69 -21 -97 -16 -205 3 -85 12 -152 26 -205 12 -43 21 -80 19 -81 -2
-1 -26 -10 -54 -19 -96 -31 -209 -115 -280 -208 -133 -173 -194 -356 -214
-643 -28 -416 -31 -519 -16 -533 19 -19 107 -27 135 -13 19 11 21 20 21 94 0
146 20 460 36 557 54 344 229 569 473 610 60 10 84 9 149 -4 117 -24 193 -67
292 -166 92 -92 150 -183 207 -325 53 -131 117 -419 130 -579 8 -100 24 -121
86 -111 61 10 92 27 95 53 7 49 -79 472 -125 617 -87 272 -209 451 -392 573
-96 64 -217 109 -310 115 -53 3 -55 4 -68 41 -47 136 -53 320 -15 427 41 117
169 261 335 379 110 77 105 91 -23 65z m40 -25 c0 -5 -3 -9 -7 -8 -8 3 -24
-10 -102 -78 -20 -17 -42 -29 -49 -27 -7 3 -11 1 -10 -4 2 -4 -6 -19 -16 -33
-10 -14 -16 -17 -13 -8 4 10 1 20 -5 24 -6 4 -9 3 -6 -2 3 -5 2 -19 -3 -31 -6
-16 -14 -21 -26 -17 -13 4 -15 3 -5 -4 11 -7 8 -14 -14 -31 -14 -11 -23 -21
-18 -21 5 0 2 -6 -6 -13 -20 -16 -72 -97 -63 -97 5 0 3 -4 -3 -8 -5 -4 -20
-34 -33 -68 -19 -53 -22 -77 -20 -192 1 -73 6 -132 11 -132 4 0 8 -7 8 -16 0
-8 8 -39 17 -67 21 -66 42 -80 112 -78 18 1 40 -4 47 -10 7 -6 17 -8 23 -5 11
7 61 -14 61 -26 0 -4 5 -8 11 -8 6 0 7 6 2 13 -4 6 5 4 20 -6 15 -9 27 -14 27
-10 0 3 11 -4 25 -17 14 -13 25 -19 25 -14 0 5 4 4 8 -3 4 -6 14 -13 21 -15
24 -5 61 -40 54 -51 -3 -6 -2 -7 4 -4 5 3 22 -3 39 -14 16 -11 23 -19 14 -19
-8 0 -4 -6 10 -13 18 -10 24 -20 22 -38 -1 -17 1 -20 7 -10 7 10 14 9 35 -10
14 -12 26 -29 26 -36 0 -7 4 -13 8 -13 5 0 17 -18 27 -39 10 -22 24 -42 31
-45 8 -3 11 -11 8 -19 -2 -7 4 -21 15 -31 11 -10 17 -24 14 -32 -3 -8 -1 -14
5 -14 13 0 37 -60 34 -82 -2 -10 1 -18 6 -18 15 0 33 -58 20 -66 -5 -4 -6 -9
-2 -13 17 -12 44 -73 44 -97 0 -14 5 -34 11 -45 5 -11 12 -33 14 -49 2 -16 6
-37 9 -47 3 -10 8 -31 10 -48 3 -16 8 -41 10 -55 13 -68 15 -104 6 -85 -7 17
-9 15 -9 -12 -1 -17 4 -35 11 -39 7 -5 8 -2 3 7 -6 10 -5 11 3 4 16 -15 35
-146 23 -158 -13 -13 -91 -27 -91 -16 0 5 -7 6 -15 2 -9 -3 -15 -2 -14 3 1 5
0 16 -4 24 -3 8 -8 44 -11 80 -3 36 -8 76 -10 90 -9 52 -36 196 -41 215 -17
67 -48 170 -70 235 -15 41 -27 81 -28 88 0 6 -3 12 -7 12 -3 0 -13 13 -22 28
-14 23 -15 31 -5 41 9 10 9 12 -1 9 -7 -2 -25 13 -40 31 -15 19 -20 31 -12 26
8 -5 0 7 -18 25 -18 19 -30 40 -28 47 3 7 1 12 -4 10 -5 -1 -43 31 -84 71 -42
39 -82 72 -91 72 -8 0 -15 5 -15 11 0 5 -4 7 -10 4 -5 -3 -10 -1 -10 5 0 6 -4
9 -9 6 -5 -3 -11 1 -15 9 -3 8 -10 15 -16 15 -6 0 -8 -5 -5 -10 4 -6 -4 -5
-19 1 -14 7 -23 15 -21 20 3 4 -9 7 -27 7 -18 0 -53 3 -78 7 -25 4 -49 7 -55
7 -22 -1 -61 -10 -77 -17 -10 -4 -23 -5 -30 -2 -7 2 -30 -4 -50 -14 -21 -11
-44 -19 -53 -19 -8 0 -15 -5 -15 -11 0 -5 -4 -7 -10 -4 -5 3 -10 -1 -10 -9 0
-15 -13 -21 -35 -16 -5 1 -7 -2 -3 -6 4 -4 -6 -17 -23 -30 -17 -13 -42 -39
-56 -58 -13 -20 -28 -36 -34 -36 -6 0 -7 -4 -4 -10 3 -5 2 -10 -2 -10 -9 0
-76 -129 -88 -170 -4 -14 -15 -34 -24 -44 -9 -11 -10 -16 -3 -12 10 6 11 4 4
-10 -15 -29 -33 -104 -37 -150 -1 -23 -6 -52 -10 -65 -8 -25 -12 -102 -15
-273 -1 -54 -5 -94 -9 -88 -3 5 -5 -41 -4 -104 2 -110 2 -114 -20 -119 -18 -5
-60 -3 -98 4 -4 0 -5 29 -3 64 2 34 9 159 15 277 14 286 15 296 22 306 3 5 8
34 11 64 2 30 9 67 15 81 5 15 7 30 3 34 -3 3 -2 9 3 13 6 4 16 30 23 57 7 28
17 52 23 53 5 2 7 8 4 13 -3 5 10 33 30 64 19 30 35 60 35 66 0 6 5 7 11 3 7
-4 10 -1 7 7 -3 8 12 31 33 51 21 21 35 38 32 38 -13 0 93 89 119 101 16 6 25
16 21 23 -3 6 -3 8 2 4 4 -4 34 7 67 24 34 17 67 31 74 31 18 0 28 39 18 69
-13 37 -16 52 -18 76 0 12 -5 22 -9 22 -5 0 -6 4 -3 9 3 5 1 22 -5 39 -8 22
-7 37 1 52 9 17 9 21 0 15 -8 -5 -11 11 -9 61 2 38 6 71 10 74 4 3 9 30 12 60
7 70 35 162 47 155 6 -4 10 1 10 10 0 22 30 66 41 59 5 -3 9 2 9 10 0 24 115
130 131 121 5 -4 9 1 9 9 0 9 3 15 8 15 19 -3 33 2 27 11 -3 6 1 7 9 4 9 -3
16 -2 16 2 0 13 61 38 88 36 12 -1 22 3 22 10 0 6 3 9 6 6 3 -3 17 -2 32 2 38
12 52 12 52 0z"/>
<path d="M911 4434 c0 -11 3 -14 6 -6 3 7 2 16 -1 19 -3 4 -6 -2 -5 -13z"/>
<path d="M410 3369 c0 -5 5 -7 10 -4 6 3 10 8 10 11 0 2 -4 4 -10 4 -5 0 -10
-5 -10 -11z"/>
<path d="M461 3354 c0 -11 3 -14 6 -6 3 7 2 16 -1 19 -3 4 -6 -2 -5 -13z"/>
<path d="M1771 3294 c0 -11 3 -14 6 -6 3 7 2 16 -1 19 -3 4 -6 -2 -5 -13z"/>
<path d="M481 3254 c0 -11 3 -14 6 -6 3 7 2 16 -1 19 -3 4 -6 -2 -5 -13z"/>
<path d="M482 3025 c0 -16 2 -22 5 -12 2 9 2 23 0 30 -3 6 -5 -1 -5 -18z"/>
<path d="M1832 3030 c0 -14 2 -19 5 -12 2 6 2 18 0 25 -3 6 -5 1 -5 -13z"/>
<path d="M481 2874 c0 -11 3 -14 6 -6 3 7 2 16 -1 19 -3 4 -6 -2 -5 -13z"/>
<path d="M4990 4966 c0 -2 8 -10 18 -17 15 -13 16 -12 3 4 -13 16 -21 21 -21
13z"/>
<path d="M5183 4437 c-6 -34 -20 -82 -31 -105 l-20 -42 21 -15 c12 -8 27 -15
34 -15 24 0 13 -16 -19 -28 -103 -38 -186 -128 -305 -330 -56 -95 -128 -250
-120 -258 2 -2 137 75 300 171 163 96 298 175 299 175 2 0 3 -151 3 -336 l0
-335 -65 -41 c-36 -23 -172 -108 -304 -190 -182 -113 -234 -149 -220 -154 63
-23 178 -127 213 -192 11 -21 14 -22 29 -9 9 8 136 87 282 177 146 89 271 169
278 178 15 20 18 1172 2 1202 -7 13 -346 210 -362 210 -2 0 -9 -28 -15 -63z
m67 8 c7 -8 16 -12 21 -9 5 3 9 0 9 -6 0 -6 4 -9 9 -6 5 3 14 -1 21 -9 7 -8
20 -15 30 -15 10 0 23 -7 30 -15 7 -8 18 -15 25 -15 6 0 19 -8 28 -18 9 -9 40
-28 70 -41 l55 -24 3 -241 c6 -517 2 -869 -11 -861 -15 9 -12 -6 4 -19 22 -18
2 -69 -34 -84 -16 -8 -28 -18 -24 -23 5 -8 -12 -13 -43 -12 -7 1 -11 -3 -8 -7
3 -5 -5 -10 -17 -12 -13 -2 -22 -9 -21 -16 2 -6 -4 -12 -12 -12 -7 0 -18 -7
-23 -16 -5 -9 -12 -15 -15 -15 -4 0 -32 -15 -62 -35 -31 -19 -59 -32 -64 -30
-5 3 -11 -1 -15 -9 -3 -8 -15 -15 -26 -15 -12 0 -19 -4 -15 -9 3 -5 -4 -12
-15 -16 -11 -3 -20 -11 -20 -16 0 -6 -4 -7 -10 -4 -5 3 -10 2 -10 -3 0 -5 -15
-16 -32 -23 -18 -7 -39 -19 -46 -26 -8 -7 -22 -18 -32 -23 -15 -8 -20 -6 -25
9 -3 11 -29 43 -58 72 -29 29 -51 57 -49 62 1 4 -1 6 -6 3 -5 -3 -24 6 -42 19
-30 22 -31 25 -14 32 18 7 30 15 58 40 8 7 16 9 20 6 3 -4 6 -1 6 7 0 10 4 10
17 -1 12 -10 15 -10 9 -1 -8 14 30 51 53 52 8 0 20 8 28 18 8 9 12 11 8 5 -11
-22 6 -14 27 12 11 14 24 25 30 25 6 0 19 6 27 14 23 20 66 32 56 16 -6 -9 -4
-11 4 -5 9 5 9 11 2 18 -7 7 2 16 27 29 20 11 43 20 50 21 7 0 32 18 54 39 23
21 47 37 53 34 27 -10 31 39 30 361 -1 312 -2 334 -20 353 -17 18 -21 19 -30
7 -6 -8 -42 -32 -80 -53 -72 -39 -130 -75 -153 -94 -7 -6 -35 -22 -63 -34 -27
-13 -59 -32 -69 -41 -11 -10 -20 -15 -20 -11 0 4 -7 0 -16 -8 -8 -9 -22 -16
-30 -16 -8 0 -12 -4 -9 -10 6 -9 -10 -14 -42 -13 -7 1 -11 -2 -9 -6 5 -7 -15
-25 -32 -28 -13 -3 -6 19 22 72 9 17 16 35 16 41 0 7 6 14 14 17 8 3 17 19 21
36 4 17 11 31 16 31 5 0 9 7 9 16 0 8 4 13 9 10 10 -7 24 22 16 33 -2 5 9 21
25 36 17 16 30 35 30 42 0 7 5 13 11 13 5 0 7 5 4 10 -3 6 1 10 10 10 11 0 15
-5 11 -16 -3 -9 -2 -12 5 -9 5 4 7 15 4 25 -8 27 22 70 43 63 15 -6 15 -4 4
10 -12 14 -8 18 27 36 45 23 66 27 55 9 -4 -7 -3 -8 5 -4 6 4 9 11 6 16 -3 5
8 17 25 26 16 10 30 23 30 29 -1 14 -26 46 -32 39 -3 -2 -8 2 -11 11 -6 13 4
19 25 16 4 0 5 6 2 14 -4 8 -11 12 -18 8 -7 -4 -7 -1 1 9 7 8 10 18 6 21 -3 4
-1 7 5 7 7 0 12 13 12 29 0 57 23 79 50 46z"/>
<path d="M5288 4403 c7 -3 16 -2 19 1 4 3 -2 6 -13 5 -11 0 -14 -3 -6 -6z"/>
<path d="M5534 3750 c0 -52 1 -74 3 -47 2 26 2 68 0 95 -2 26 -3 4 -3 -48z"/>
<path d="M4950 3040 c0 -5 5 -10 10 -10 6 0 10 5 10 10 0 6 -4 10 -10 10 -5 0
-10 -4 -10 -10z"/>
<path d="M675 4392 c-96 -56 -154 -96 -162 -112 -13 -25 -20 -340 -8 -340 13
0 60 37 116 91 65 63 151 119 210 138 31 10 35 15 31 37 -4 23 -37 51 -54 46
-4 -1 -5 6 -2 16 5 14 4 15 -5 2 -8 -12 -5 -19 14 -33 14 -10 25 -23 25 -28 0
-10 -43 -40 -63 -43 -8 -1 -22 -8 -31 -15 -8 -7 -19 -10 -24 -7 -4 3 -14 -4
-22 -14 -8 -10 -18 -16 -23 -13 -6 3 -7 1 -3 -5 4 -7 3 -12 -3 -12 -5 0 -26
-18 -47 -40 -20 -21 -42 -36 -47 -33 -6 3 -7 2 -4 -4 6 -9 -21 -35 -39 -37
-13 -2 -15 256 -2 286 13 28 52 53 69 43 5 -4 20 5 33 18 13 13 53 40 89 60
60 33 67 34 79 19 11 -13 11 -14 -1 -7 -10 6 -12 4 -6 -6 10 -15 14 -33 19
-92 4 -42 10 -52 24 -43 5 3 3 35 -5 77 -7 40 -10 88 -7 106 3 18 5 33 3 32
-2 0 -71 -39 -154 -87z m-40 -52 c-3 -5 -12 -10 -18 -10 -7 0 -6 4 3 10 19 12
23 12 15 0z"/>
<path d="M542 4090 c0 -19 2 -27 5 -17 2 9 2 25 0 35 -3 9 -5 1 -5 -18z"/>
<path d="M995 3926 c-56 -14 -105 -37 -152 -74 l-33 -24 108 -62 c149 -86 494
-286 632 -367 63 -37 116 -66 118 -64 6 6 -37 132 -69 202 -65 145 -192 294
-297 347 -105 53 -206 67 -307 42z m145 -17 c64 -3 82 -7 74 -20 -3 -6 5 -7
20 -3 16 4 26 2 26 -5 0 -6 9 -11 20 -11 10 0 23 -8 29 -17 5 -10 13 -15 16
-11 10 10 75 -41 75 -59 0 -8 4 -12 9 -8 12 7 53 -50 43 -60 -4 -5 -2 -5 4 -2
7 4 18 -7 28 -26 8 -17 16 -28 16 -22 0 5 7 -1 16 -14 14 -19 14 -25 3 -32
-10 -6 -8 -9 10 -9 13 0 21 -3 18 -7 -4 -3 0 -17 9 -31 12 -18 12 -23 3 -17
-8 3 -5 -1 5 -9 11 -9 16 -16 11 -16 -4 0 -2 -8 7 -17 8 -10 13 -28 12 -40 0
-12 2 -20 6 -18 4 2 12 -7 19 -21 12 -27 15 -75 3 -59 -4 6 -24 19 -45 30 -29
15 -37 25 -33 40 5 20 5 20 -9 1 -8 -11 -15 -15 -15 -9 0 6 -13 16 -30 22 -16
5 -30 14 -30 20 0 5 -10 11 -22 13 -12 2 -28 14 -34 26 -8 16 -13 19 -16 10
-4 -10 -9 -9 -25 5 -11 9 -23 14 -26 10 -4 -3 -7 -1 -7 5 0 7 -3 11 -7 10 -5
-1 -32 13 -61 32 -36 22 -51 38 -47 48 4 12 3 13 -10 2 -13 -10 -19 -10 -33 4
-10 9 -22 16 -26 16 -4 0 -14 7 -22 15 -11 11 -12 15 -3 15 7 0 9 3 6 6 -4 4
-13 2 -20 -4 -11 -9 -28 -1 -78 35 -35 26 -66 47 -69 47 -3 1 -4 4 -3 8 2 4
-4 5 -12 2 -8 -4 -15 -1 -15 6 0 6 -4 8 -10 5 -5 -3 -15 3 -21 14 -7 10 -19
17 -26 14 -8 -3 -13 2 -13 13 0 9 3 15 6 12 3 -3 17 5 31 18 14 13 28 23 32
22 3 -1 26 4 50 11 24 7 52 10 62 8 11 -3 16 -1 13 5 -4 6 1 8 12 4 11 -3 44
-6 74 -7z"/>
<path d="M1138 3843 c7 -3 16 -2 19 1 4 3 -2 6 -13 5 -11 0 -14 -3 -6 -6z"/>
<path d="M4435 3861 c-44 -26 -213 -126 -375 -223 -162 -96 -434 -260 -605
-363 -170 -104 -330 -200 -355 -213 l-46 -25 -279 170 c-267 162 -539 324
-800 476 -66 38 -132 78 -148 89 -32 23 -34 18 -7 -31 35 -63 98 -232 127
-337 l27 -101 61 -35 c33 -20 256 -153 495 -296 472 -281 491 -292 515 -292 9
0 94 47 188 103 183 110 1040 621 1094 653 24 13 35 28 39 54 9 49 90 271 128
353 18 37 30 67 27 66 -3 0 -42 -22 -86 -48z m21 -41 c-2 -17 -11 -39 -21 -50
-10 -11 -16 -23 -12 -26 3 -3 -3 -24 -13 -47 -10 -23 -16 -45 -13 -51 4 -5 0
-7 -8 -4 -11 4 -15 -1 -13 -23 2 -26 -44 -178 -46 -154 0 6 -7 2 -14 -8 -8
-10 -22 -20 -31 -21 -9 -1 -20 -7 -23 -12 -4 -5 -31 -21 -59 -34 -29 -14 -53
-28 -53 -32 0 -5 -6 -8 -14 -8 -8 0 -16 -4 -18 -9 -1 -5 -12 -11 -23 -13 -11
-1 -22 -9 -25 -16 -3 -8 -9 -13 -13 -12 -4 1 -30 -15 -57 -34 -28 -20 -55 -36
-61 -36 -6 0 -34 -16 -61 -36 -27 -20 -52 -34 -55 -31 -3 4 -13 -2 -22 -13 -9
-11 -22 -20 -30 -22 -8 -2 -25 -12 -39 -23 -13 -11 -27 -20 -30 -21 -12 -1
-47 -17 -52 -23 -11 -13 -70 -51 -79 -51 -5 0 -16 -6 -23 -12 -7 -7 -36 -24
-65 -38 -28 -14 -49 -28 -47 -31 5 -9 -46 -30 -57 -24 -5 4 -9 1 -9 -4 0 -6
-7 -11 -16 -11 -8 0 -13 -4 -10 -9 3 -5 -9 -16 -27 -26 -61 -32 -92 -50 -99
-60 -5 -7 -8 -7 -8 0 0 7 -3 7 -8 0 -11 -16 -73 -57 -88 -59 -8 -1 -20 -8 -26
-14 -20 -20 -67 -13 -123 17 -29 16 -55 28 -57 25 -3 -2 -15 7 -28 21 -13 14
-29 25 -36 25 -7 0 -20 10 -28 22 -9 12 -16 19 -16 15 0 -11 -113 53 -126 71
-7 9 -16 12 -24 7 -9 -5 -11 -4 -6 3 4 7 1 12 -8 12 -9 0 -16 5 -16 11 0 5 -4
8 -10 4 -5 -3 -18 3 -29 14 -10 10 -30 22 -42 26 -27 9 -102 56 -107 68 -2 4
-8 5 -13 1 -5 -3 -9 0 -9 6 0 6 -4 9 -9 6 -5 -3 -23 7 -40 23 -16 15 -32 26
-35 24 -3 -3 -18 3 -33 13 -55 37 -68 44 -95 55 -16 6 -26 15 -23 19 5 8 -16
20 -44 26 -8 1 -18 10 -23 19 -5 8 -13 13 -19 10 -5 -4 -9 -1 -9 4 0 6 -4 10
-8 9 -4 -2 -25 6 -45 17 -26 14 -35 24 -32 36 3 10 2 20 -4 23 -5 3 -14 30
-21 58 -12 49 -28 95 -68 193 -10 22 -16 45 -14 51 1 7 -2 15 -8 19 -5 3 -10
16 -10 28 0 18 2 19 10 7 5 -8 10 -11 10 -6 0 5 10 0 23 -12 13 -12 27 -19 30
-15 4 3 7 1 7 -5 0 -7 7 -12 16 -12 8 0 31 -12 50 -26 19 -15 34 -23 34 -20 0
4 6 1 14 -6 8 -7 11 -17 8 -22 -3 -5 0 -6 6 -2 11 7 51 -13 136 -68 27 -17 53
-30 58 -28 4 1 8 -3 8 -9 0 -5 5 -7 10 -4 6 3 10 2 10 -2 0 -9 59 -47 73 -48
4 0 12 -7 17 -15 5 -8 10 -11 10 -7 0 4 20 -6 45 -23 25 -17 45 -28 45 -25 0
3 15 -5 33 -19 19 -15 37 -26 40 -26 4 0 31 -16 62 -35 30 -20 57 -35 61 -34
3 0 20 -12 36 -28 17 -15 28 -22 24 -16 -5 9 -2 11 8 7 9 -3 16 -9 16 -13 0
-4 14 -18 31 -30 18 -13 28 -18 24 -11 -5 8 7 2 26 -12 19 -14 60 -39 92 -57
31 -18 57 -37 57 -42 0 -6 4 -8 9 -4 5 3 16 -2 25 -10 17 -17 41 -10 79 23 9
8 17 11 17 7 0 -4 9 0 20 10 11 10 20 15 20 11 0 -4 7 0 16 9 10 9 25 14 36
12 10 -3 15 -1 12 4 -6 11 35 48 54 49 13 0 72 38 83 54 4 5 12 5 19 1 9 -6
11 -4 5 5 -5 8 -3 11 6 8 7 -2 24 7 36 20 13 14 23 22 23 18 0 -4 12 2 26 13
15 12 30 21 35 21 8 0 67 37 104 65 10 8 25 15 32 15 7 0 13 5 13 11 0 6 7 8
16 5 8 -3 13 -2 10 3 -3 5 8 14 24 21 17 7 30 16 30 21 0 5 7 6 15 2 9 -3 15
-2 13 3 -2 5 0 9 3 9 4 0 16 8 26 18 11 9 23 14 27 10 4 -4 12 0 17 10 6 9 17
17 25 17 9 0 12 -5 8 -12 -4 -8 -3 -10 2 -5 5 5 10 13 10 18 1 5 2 14 3 19 0
6 10 10 21 10 11 0 20 5 20 10 0 6 7 10 15 10 8 0 24 9 35 20 11 11 20 17 20
13 0 -3 11 4 25 17 14 13 25 20 25 15 0 -5 12 2 27 16 14 13 23 18 19 11 -5
-8 15 3 43 23 28 21 62 38 75 39 13 0 22 5 18 10 -3 5 2 7 11 3 11 -4 14 -2
11 8 -6 14 29 39 40 28 3 -3 6 -1 6 6 0 6 21 21 46 31 25 11 57 29 71 40 33
26 33 26 29 -10z m-2598 -105 c-3 -3 -9 2 -12 12 -6 14 -5 15 5 6 7 -7 10 -15
7 -18z"/>
<path d="M2900 2779 c0 -5 5 -7 10 -4 6 3 10 8 10 11 0 2 -4 4 -10 4 -5 0 -10
-5 -10 -11z"/>
<path d="M697 3124 c-15 -8 -32 -26 -37 -40 -6 -15 -10 -269 -10 -625 0 -534
2 -600 16 -606 9 -3 26 5 42 20 91 84 212 86 298 3 74 -72 90 -193 35 -265
l-18 -24 189 -119 c324 -203 946 -600 1331 -850 260 -168 376 -238 396 -238
15 0 46 13 67 28 48 35 470 325 698 480 93 63 245 167 337 231 92 64 232 159
309 211 151 102 511 346 808 547 104 71 180 129 176 135 -4 7 -9 6 -14 -2 -4
-6 -10 -10 -13 -8 -3 1 -17 -7 -31 -19 -14 -13 -26 -20 -26 -16 0 4 -7 -2 -16
-13 -8 -10 -13 -14 -10 -8 3 6 -1 11 -8 11 -8 0 -12 -6 -9 -14 3 -7 1 -13 -4
-13 -6 0 -30 -16 -55 -35 -25 -19 -49 -31 -53 -27 -5 4 -5 2 -2 -4 4 -7 0 -15
-9 -18 -10 -4 -13 -2 -8 7 5 6 -6 -1 -22 -18 -39 -38 -112 -77 -127 -68 -7 4
-5 -2 3 -12 8 -10 10 -16 5 -13 -6 4 -35 -11 -65 -33 -89 -64 -250 -172 -294
-198 -23 -13 -43 -28 -44 -33 -2 -5 -21 -17 -41 -28 -21 -10 -43 -26 -50 -34
-7 -9 -23 -14 -35 -12 -11 2 -15 1 -9 -1 10 -3 10 -8 -1 -19 -8 -8 -22 -11
-30 -8 -12 5 -15 2 -10 -10 6 -16 -2 -20 -36 -17 -11 0 -11 -1 -2 -5 8 -4 -3
-14 -27 -26 -23 -11 -41 -24 -41 -30 0 -5 -5 -6 -12 -2 -7 4 -8 3 -4 -4 8 -13
-47 -45 -59 -34 -5 4 -5 2 -2 -4 6 -11 -19 -29 -35 -26 -5 1 -8 -2 -8 -7 0 -5
-19 -19 -42 -31 -24 -12 -51 -31 -62 -42 -10 -11 -25 -17 -33 -14 -8 3 -12 2
-9 -3 7 -11 -42 -53 -54 -46 -5 3 -11 1 -15 -5 -4 -6 -11 -8 -16 -5 -5 3 -6
-1 -3 -9 3 -9 -3 -17 -16 -21 -12 -4 -32 -16 -43 -26 -47 -43 -52 -46 -65 -42
-6 3 -9 10 -6 15 5 7 2 8 -5 3 -9 -5 -10 -10 -2 -18 7 -7 3 -16 -14 -28 -13
-11 -26 -19 -30 -19 -3 0 -13 -7 -22 -15 -8 -9 -28 -19 -44 -22 -16 -3 -26 -9
-24 -13 6 -10 -94 -76 -107 -72 -5 1 -7 -2 -3 -8 3 -5 2 -10 -3 -10 -4 0 -19
-10 -31 -22 -13 -11 -48 -33 -77 -48 -29 -15 -50 -30 -47 -34 4 -3 1 -6 -5 -6
-7 0 -21 -8 -32 -18 -11 -9 -23 -15 -25 -12 -3 3 -12 -5 -20 -18 -9 -12 -20
-20 -25 -17 -4 3 -10 2 -12 -3 -1 -4 -23 -23 -48 -42 -24 -19 -41 -30 -37 -23
4 6 2 15 -4 19 -7 4 -9 3 -5 -4 8 -13 -38 -57 -76 -75 -16 -6 -28 -15 -28 -19
0 -5 -5 -8 -10 -8 -6 0 -28 -11 -50 -25 -22 -14 -50 -25 -62 -25 -19 0 -20 2
-8 10 10 7 11 10 3 11 -34 4 -38 6 -36 17 3 10 -16 17 -39 13 -5 0 -8 3 -8 8
0 5 -10 13 -21 16 -32 10 -109 61 -103 68 3 3 -5 8 -17 12 -13 4 -44 23 -71
41 -26 19 -50 34 -52 34 -3 0 -33 19 -67 42 -34 24 -69 48 -78 53 -9 6 -18 12
-21 15 -3 3 -22 14 -43 25 -20 11 -47 29 -60 40 -23 22 -57 39 -69 37 -5 -1
-8 3 -8 8 0 6 -16 18 -35 27 -19 9 -35 21 -35 25 0 5 -4 6 -10 3 -5 -3 -10 -1
-10 5 0 6 -5 8 -12 4 -7 -5 -9 -2 -5 8 4 11 0 15 -11 14 -9 -2 -24 4 -32 13
-8 9 -35 27 -60 40 -25 14 -48 29 -52 35 -4 6 -8 7 -8 3 0 -5 -17 5 -39 22
-21 17 -41 28 -45 24 -3 -3 -6 -2 -6 4 0 5 -12 15 -26 21 -16 8 -22 17 -18 25
4 6 4 9 -1 5 -9 -9 -105 41 -105 54 0 4 -9 8 -20 8 -11 0 -23 7 -26 15 -3 8
-16 17 -27 21 -12 4 -30 16 -39 27 -10 11 -18 16 -18 12 0 -5 -10 1 -22 12
-13 11 -33 24 -46 28 -13 4 -20 11 -16 18 4 7 4 9 0 5 -5 -4 -26 4 -47 18 -21
13 -41 24 -44 24 -3 0 -30 18 -60 40 -30 22 -55 37 -55 33 0 -4 -7 1 -15 11
-8 11 -15 16 -15 12 0 -5 -7 -2 -16 5 -21 18 -55 37 -77 45 -10 4 -16 13 -13
21 4 9 2 11 -6 7 -6 -4 -16 -1 -22 7 -6 8 -17 14 -25 14 -30 0 -36 32 -17 88
13 39 16 66 11 98 -8 49 -47 122 -76 143 -10 7 -16 16 -11 20 4 4 2 6 -3 4 -6
-2 -12 2 -15 7 -3 6 5 11 17 13 27 4 86 -35 77 -50 -4 -6 -3 -8 2 -5 6 3 28
-5 49 -19 22 -13 57 -31 77 -40 22 -10 35 -21 31 -28 -3 -6 -3 -8 2 -4 16 15
30 -20 32 -82 2 -116 2 -117 13 -100 8 13 10 13 10 -2 0 -9 24 -37 53 -61 40
-35 64 -47 107 -55 64 -12 135 2 173 33 26 22 47 29 47 17 0 -5 23 -21 50 -36
28 -15 50 -31 50 -37 0 -5 3 -8 8 -7 14 5 72 -24 66 -33 -3 -5 1 -9 10 -9 8 0
28 -11 44 -25 16 -13 32 -22 36 -18 3 3 6 1 6 -6 0 -7 4 -10 9 -7 5 3 12 -1
15 -10 3 -8 10 -13 15 -9 5 3 16 -3 23 -12 7 -10 20 -19 28 -21 8 -2 19 -10
23 -18 4 -8 13 -14 18 -14 18 0 70 -41 64 -51 -4 -5 -1 -9 4 -9 6 0 11 5 11
10 0 6 10 2 22 -9 11 -11 25 -18 29 -15 4 2 11 -2 16 -9 4 -7 24 -22 43 -33
19 -10 44 -28 55 -40 12 -11 25 -19 31 -17 5 2 19 -5 29 -15 11 -10 38 -29 60
-42 22 -13 43 -29 47 -34 4 -6 8 -7 8 -2 0 5 9 1 20 -9 11 -10 17 -22 14 -26
-3 -5 3 -6 12 -2 11 4 23 -2 36 -18 11 -13 17 -18 13 -11 -6 11 -3 11 14 0 12
-7 21 -16 21 -21 0 -4 4 -6 9 -2 5 3 16 -2 24 -10 9 -8 19 -15 24 -15 4 0 23
-13 40 -29 18 -16 46 -34 63 -41 16 -7 30 -16 30 -20 0 -4 11 -11 25 -14 16
-4 23 -11 19 -18 -5 -8 -2 -9 9 -5 9 3 16 2 14 -4 -1 -5 17 -18 40 -29 33 -15
46 -16 56 -7 28 26 54 36 65 25 8 -8 9 -5 6 9 -4 15 2 23 28 33 18 8 41 22 52
32 10 11 25 17 33 13 14 -5 14 -3 2 12 -8 9 -9 14 -3 10 6 -4 19 2 29 13 10
11 27 20 37 20 11 0 17 4 14 9 -3 5 14 18 38 29 24 12 46 28 49 37 4 8 10 15
14 14 19 -3 34 2 29 10 -3 4 10 17 29 27 19 10 35 23 35 29 0 5 5 3 10 -5 8
-13 10 -13 10 2 0 10 10 20 25 24 14 3 25 10 25 15 0 5 11 14 25 19 14 5 25
14 25 20 0 6 4 9 9 5 6 -3 14 3 20 12 6 10 11 14 11 8 0 -6 3 -5 8 1 15 23
123 85 135 78 6 -5 5 1 -3 11 -8 10 -10 16 -3 12 6 -4 15 -2 18 4 4 5 14 8 22
5 8 -3 11 -2 8 4 -6 9 105 90 124 90 6 0 11 5 11 12 0 6 3 8 7 5 3 -4 11 0 17
8 6 7 18 15 26 17 8 2 23 12 33 23 10 11 16 14 12 5 -4 -10 -2 -10 8 2 20 25
123 99 192 138 33 19 65 39 70 45 6 7 27 22 48 35 21 12 48 32 59 44 12 11 18
15 14 9 -5 -9 -2 -11 9 -7 9 4 13 9 11 12 -7 6 94 72 111 72 7 0 17 10 24 21
9 17 13 19 20 8 7 -12 9 -11 9 1 1 23 82 70 111 64 13 -3 20 -2 14 3 -17 13
-17 36 -1 30 8 -3 17 1 20 9 3 8 12 14 20 12 7 -2 22 8 33 20 10 13 31 25 45
25 22 2 24 5 15 16 -10 12 -9 14 6 8 10 -4 16 -3 14 1 -3 4 1 13 9 20 8 7 14
9 14 5 0 -4 4 -3 8 2 16 23 72 55 73 43 0 -7 4 -3 10 10 5 13 13 20 19 17 5
-3 10 -1 10 4 0 6 7 11 15 11 8 0 15 4 15 9 0 4 20 19 44 32 25 13 42 28 39
33 -4 5 1 7 11 3 10 -4 15 -3 11 3 -3 6 1 10 9 10 9 0 16 5 16 11 0 5 5 7 12
3 7 -4 8 -3 4 4 -4 7 -1 12 7 12 8 0 22 9 31 19 10 11 24 17 32 14 8 -3 14 -2
13 3 -4 21 2 28 11 14 8 -13 10 -12 10 4 0 12 5 16 16 12 8 -3 12 -2 9 4 -3 6
1 10 9 10 8 0 21 9 29 20 8 11 17 17 22 12 5 -4 5 -2 2 5 -4 6 5 15 22 21 22
8 31 7 35 -1 2 -7 5 -4 5 5 1 25 35 31 75 14 20 -8 36 -18 36 -21 0 -3 -5 -3
-11 1 -8 4 -8 0 0 -15 8 -14 12 -86 12 -204 0 -100 -1 -321 -1 -490 0 -170 -4
-306 -8 -303 -5 3 -9 -1 -9 -9 0 -8 5 -11 11 -8 22 13 -1 -7 -37 -31 -21 -14
-42 -26 -47 -26 -6 0 -10 -5 -10 -11 0 -6 -7 -8 -16 -5 -8 3 -12 2 -9 -4 3 -6
2 -10 -4 -10 -5 0 -23 -11 -39 -25 -23 -19 -32 -22 -41 -12 -7 7 -12 8 -11 2
5 -22 -1 -35 -15 -35 -8 0 -24 -10 -36 -23 -12 -12 -19 -15 -15 -7 4 8 1 7 -7
-3 -8 -10 -24 -19 -35 -20 -11 0 -19 -4 -16 -8 2 -4 -13 -18 -33 -30 -21 -13
-43 -28 -50 -34 -7 -5 -18 -15 -26 -21 -7 -6 -24 -10 -37 -8 -14 1 -19 0 -12
-3 10 -4 9 -9 -4 -24 -9 -10 -22 -19 -29 -19 -7 0 -22 -9 -35 -20 -13 -11 -28
-20 -34 -20 -6 0 -19 -9 -29 -20 -9 -11 -23 -17 -32 -14 -11 5 -14 2 -9 -12 4
-11 4 -16 -1 -12 -4 4 -14 0 -22 -10 -9 -11 -12 -11 -7 -2 4 8 -3 5 -15 -7
-22 -23 -32 -27 -61 -24 -12 2 -13 0 -1 -8 11 -7 10 -11 -8 -20 -11 -7 -21 -8
-21 -4 0 4 -7 -2 -15 -14 -10 -14 -21 -20 -32 -16 -11 4 -14 3 -9 -5 4 -7 3
-12 -2 -12 -5 0 -22 -11 -38 -25 -15 -13 -30 -22 -33 -20 -2 3 -12 -5 -22 -16
-10 -12 -23 -18 -30 -13 -7 4 -9 3 -6 -3 7 -12 -33 -36 -53 -31 -8 2 -14 -3
-15 -9 0 -7 -4 -13 -8 -12 -5 0 -17 -10 -28 -22 -10 -12 -19 -19 -19 -15 0 4
-10 -2 -22 -14 -21 -19 -33 -24 -51 -21 -5 1 -6 -3 -2 -9 3 -5 -5 -14 -18 -19
-14 -6 -28 -15 -32 -21 -3 -5 -12 -7 -18 -4 -7 4 -9 4 -5 -1 9 -10 -51 -50
-70 -46 -7 1 -12 -2 -11 -6 3 -20 -2 -27 -11 -13 -8 13 -10 12 -10 -2 0 -10
-7 -18 -15 -18 -8 0 -15 -4 -15 -10 0 -5 -15 -17 -32 -26 -18 -9 -35 -20 -38
-23 -15 -19 -59 -38 -91 -39 -38 -1 -77 27 -65 47 4 6 -3 8 -16 6 -28 -5 -72
29 -65 50 4 8 2 17 -3 20 -6 4 -10 -1 -10 -9 0 -9 -4 -16 -9 -16 -24 0 0 37
37 56 23 11 39 24 35 27 -6 6 12 11 30 8 4 0 7 6 7 14 0 8 6 15 14 15 7 0 26
12 41 28 16 15 25 20 20 12 -6 -11 -3 -10 12 3 11 9 23 14 28 10 4 -5 5 -2 1
5 -4 7 -1 12 8 12 9 0 16 7 16 17 0 9 3 13 7 10 3 -4 15 1 26 10 10 10 24 18
30 18 7 0 14 5 16 10 3 6 25 23 50 39 26 15 55 36 66 46 11 9 36 26 55 36 38
21 42 24 85 59 17 14 38 28 48 31 9 3 17 10 17 15 0 6 4 7 10 4 6 -3 10 -2 10
3 0 5 18 17 39 28 22 10 37 23 33 28 -3 5 2 6 12 3 10 -4 15 -3 11 3 -5 9 16
15 38 11 5 -1 6 3 3 7 -10 16 33 45 66 45 18 0 25 2 16 4 -29 7 -22 26 8 22 3
0 13 8 22 19 9 10 23 17 31 14 8 -3 11 0 7 6 -6 9 10 21 26 18 4 0 15 9 24 22
8 12 21 21 29 20 7 -2 21 6 32 17 10 11 33 31 52 44 31 21 34 22 27 5 -3 -10
5 -4 20 14 14 18 30 29 36 26 7 -4 8 -2 4 4 -4 7 -3 12 3 12 5 0 17 7 25 16 9
8 25 16 35 17 11 0 19 5 18 10 -2 9 22 26 85 62 15 8 31 16 35 17 5 2 19 15
31 30 13 15 30 28 38 28 8 0 14 5 14 11 0 6 7 8 16 5 8 -3 12 -2 9 4 -3 6 0
13 8 16 13 5 33 75 28 98 -1 6 -2 93 -2 195 0 102 -4 195 -9 206 -8 18 -13
-127 -15 -392 l0 -82 -55 -38 c-30 -21 -140 -97 -245 -168 -104 -71 -251 -171
-325 -221 -74 -51 -184 -127 -245 -168 -183 -124 -453 -309 -575 -392 -63 -44
-116 -86 -118 -95 -2 -9 27 -37 77 -72 93 -67 116 -77 152 -67 15 4 269 169
565 366 297 197 634 420 749 495 116 76 218 146 228 155 16 16 17 55 17 531
l0 513 -28 31 c-43 49 -83 43 -179 -23 -43 -30 -319 -216 -613 -413 -538 -360
-871 -585 -1075 -724 -60 -41 -150 -102 -200 -136 -337 -228 -496 -339 -500
-346 -6 -8 -44 15 -362 220 -198 128 -434 280 -788 507 -158 101 -160 102
-180 84 -52 -48 -153 -64 -223 -34 -87 36 -140 130 -128 224 5 37 3 49 -8 53
-8 3 -104 61 -213 129 l-198 123 0 338 c0 185 0 337 1 337 3 0 514 -312 759
-464 l270 -167 8 28 c11 37 1 135 -25 259 l-21 101 -101 60 c-55 33 -274 165
-486 293 -514 311 -494 300 -527 300 -15 -1 -41 -8 -56 -16z m125 -36 c20 -15
40 -28 45 -28 4 0 23 -9 42 -21 27 -16 31 -23 20 -30 -11 -7 -11 -9 4 -9 9 0
17 6 17 13 1 6 9 2 19 -10 10 -12 21 -19 25 -16 3 4 6 2 6 -3 0 -6 16 -16 35
-24 19 -8 35 -17 35 -21 0 -3 15 -12 33 -20 37 -15 109 -59 119 -73 4 -6 5
-13 3 -17 -3 -3 6 -4 19 -2 13 3 30 -2 39 -11 8 -9 20 -16 26 -16 6 0 11 -3
11 -8 0 -4 20 -16 45 -27 46 -21 54 -30 33 -39 -7 -3 -1 -3 14 -1 18 2 35 -4
52 -20 14 -13 26 -22 26 -19 0 3 13 -4 29 -15 16 -12 34 -21 40 -21 6 0 11 -4
11 -8 0 -9 71 -47 83 -44 4 1 10 -5 13 -13 4 -8 12 -15 19 -15 7 0 18 -7 25
-15 7 -8 16 -12 21 -9 5 3 9 2 9 -3 1 -4 25 -23 54 -42 64 -41 65 -44 96 -261
14 -95 13 -99 -11 -95 -12 3 -30 12 -40 21 -11 10 -19 14 -19 10 0 -4 -6 -1
-14 6 -23 22 -56 43 -69 43 -7 1 -11 7 -9 14 1 7 -3 11 -10 8 -7 -2 -52 23
-100 55 -49 32 -88 55 -88 51 0 -5 -6 -1 -13 7 -20 25 -117 85 -117 73 0 -4
-10 3 -22 15 -13 11 -27 22 -33 23 -20 3 -45 26 -37 34 4 5 1 5 -6 1 -8 -5
-19 -1 -27 10 -7 11 -16 16 -20 12 -10 -9 -45 24 -38 35 3 6 1 7 -5 4 -14 -10
-42 2 -42 18 0 8 -8 11 -20 8 -11 -3 -20 0 -20 6 0 6 -16 18 -36 26 -20 8 -45
24 -54 35 -10 12 -23 19 -28 18 -6 -2 -18 6 -27 17 -9 11 -14 14 -10 8 4 -9 1
-11 -9 -7 -9 3 -13 10 -10 15 3 5 0 9 -6 9 -7 0 -24 9 -39 19 -26 19 -27 19
-47 -4 -13 -14 -18 -29 -13 -41 3 -11 4 -23 0 -29 -11 -19 -8 -555 3 -555 8 0
8 -3 1 -8 -6 -4 -11 -12 -10 -17 0 -18 41 -64 69 -76 14 -7 26 -16 26 -21 0
-5 14 -14 31 -20 27 -9 29 -12 16 -25 -11 -12 -19 -12 -35 -4 -12 6 -32 12
-46 13 -15 1 -26 6 -26 11 0 4 -6 5 -12 0 -7 -4 -21 -6 -30 -5 -10 2 -27 -2
-39 -8 -12 -7 -19 -8 -16 -3 3 5 -3 9 -13 9 -10 0 -16 -4 -14 -8 3 -5 -2 -15
-10 -24 -9 -8 -16 -12 -16 -8 0 4 -11 -3 -24 -15 -13 -12 -26 -19 -29 -14 -9
15 -4 1156 5 1182 21 57 81 65 140 19z"/>
<path d="M1911 2786 l-43 -10 6 -41 c3 -22 12 -69 21 -105 69 -292 89 -468 65
-571 -32 -137 -106 -221 -232 -260 l-67 -21 -43 45 c-34 36 -52 46 -89 52 -98
15 -179 -56 -179 -157 0 -85 66 -148 153 -148 57 0 98 19 126 59 17 24 32 31
88 41 134 23 248 98 312 204 99 165 98 340 -4 772 -40 169 -33 160 -114 140z
m69 -34 c0 -14 12 -63 56 -237 3 -11 7 -32 8 -46 2 -14 6 -30 9 -36 7 -11 19
-137 21 -215 1 -31 5 -54 10 -51 5 4 6 -5 3 -18 -3 -13 -11 -55 -17 -93 -6
-38 -15 -77 -20 -86 -5 -10 -6 -21 -2 -25 4 -5 1 -5 -5 -1 -9 5 -13 1 -13 -12
0 -11 -9 -31 -21 -46 -11 -14 -18 -26 -15 -26 3 0 -4 -11 -16 -25 -11 -13 -25
-22 -30 -19 -5 3 -7 0 -6 -6 2 -6 -22 -29 -52 -51 -56 -39 -146 -70 -212 -72
-20 -1 -35 -3 -33 -6 10 -9 -78 -80 -106 -86 -37 -8 -102 2 -94 15 3 6 0 7 -7
5 -8 -3 -22 2 -33 11 -11 8 -15 13 -9 10 6 -3 11 1 11 8 0 8 -6 12 -12 9 -7
-2 -15 5 -18 16 -3 12 -1 21 4 21 5 0 9 5 9 11 0 5 -4 8 -9 5 -11 -7 -20 14
-13 31 2 7 9 10 15 6 6 -3 7 -1 3 6 -10 16 2 64 14 56 5 -3 11 4 15 15 4 11
10 18 14 16 4 -3 18 0 32 7 55 27 141 -2 161 -55 9 -21 53 -28 97 -15 20 6 41
11 46 11 41 3 193 145 179 167 -3 5 2 12 10 15 9 4 16 18 16 34 0 16 5 32 11
35 6 4 8 13 5 21 -3 7 1 31 8 52 9 25 11 44 5 55 -5 9 -9 33 -8 54 1 45 -27
237 -40 273 -17 44 -33 139 -25 151 4 8 3 9 -4 5 -7 -4 -13 3 -17 19 -3 14 -7
36 -10 50 -7 34 15 56 50 49 19 -3 24 -1 19 7 -4 8 -3 9 4 5 7 -4 12 -15 12
-24z"/>
<path d="M1918 2723 c6 -2 18 -2 25 0 6 3 1 5 -13 5 -14 0 -19 -2 -12 -5z"/>
<path d="M1960 2705 c0 -5 5 -17 10 -25 5 -8 10 -10 10 -5 0 6 -5 17 -10 25
-5 8 -10 11 -10 5z"/>
<path d="M2000 2546 c0 -2 7 -9 15 -16 13 -11 14 -10 9 4 -5 14 -24 23 -24 12z"/>
<path d="M335 2522 c-60 -402 -41 -596 71 -721 65 -73 151 -116 268 -136 25
-4 47 -17 63 -36 65 -77 173 -80 239 -7 44 48 48 130 10 189 -30 45 -98 75
-152 66 -41 -7 -100 -48 -109 -77 -8 -25 -47 -19 -133 22 -120 57 -166 155
-165 348 1 102 26 338 52 473 10 55 12 53 -65 60 l-51 6 -28 -187z m70 148
c-3 -5 -2 -10 4 -10 5 0 11 6 14 13 3 9 9 8 21 -4 14 -13 15 -23 6 -62 -12
-57 -18 -100 -26 -191 -3 -38 -9 -77 -14 -86 -5 -10 -7 -19 -5 -22 3 -2 1 -19
-5 -36 -5 -18 -5 -30 -1 -27 5 2 10 -55 13 -128 l4 -132 46 -72 c27 -42 60
-79 77 -88 17 -8 31 -20 31 -26 0 -6 7 -9 15 -5 8 3 15 2 15 -3 0 -4 6 -8 13
-8 6 0 32 -6 57 -12 37 -8 47 -8 56 4 6 8 14 11 18 7 4 -4 6 -2 4 3 -5 17 29
58 43 50 8 -5 10 -4 5 3 -5 8 3 12 23 13 83 4 89 2 123 -31 16 -16 33 -30 37
-30 19 0 16 -102 -4 -140 -16 -32 -19 -33 -26 -15 -7 19 -8 19 -8 -1 -1 -27
-22 -37 -81 -40 -55 -2 -73 4 -65 24 4 12 3 12 -9 3 -11 -9 -16 -9 -22 0 -5 8
-3 9 7 3 8 -4 -3 9 -24 30 -22 22 -44 35 -52 32 -8 -3 -33 1 -55 9 -22 8 -41
14 -43 14 -11 -4 -87 24 -87 31 0 6 -5 10 -11 10 -14 0 -88 75 -112 113 -10
15 -15 33 -11 39 4 7 3 8 -4 4 -7 -4 -14 4 -17 21 -4 15 -11 36 -16 47 -15 27
-24 242 -10 250 8 5 8 12 0 24 -13 20 14 230 33 266 6 12 10 41 9 66 -2 50 12
100 29 100 6 0 8 -4 5 -10z"/>
<path d="M392 2190 c0 -14 2 -19 5 -12 2 6 2 18 0 25 -3 6 -5 1 -5 -13z"/>
<path d="M1068 2533 c7 -3 16 -2 19 1 4 3 -2 6 -13 5 -11 0 -14 -3 -6 -6z"/>
<path d="M3835 2389 c-336 -213 -678 -432 -767 -490 l-101 -66 -61 39 c-149
96 -750 468 -751 465 -2 -1 2 -33 7 -72 8 -65 5 -161 -8 -246 l-6 -35 109 -66
c129 -78 201 -123 479 -296 125 -79 221 -132 236 -132 14 0 67 27 119 59 303
190 805 506 867 546 43 27 71 51 68 58 -52 119 -86 256 -72 293 3 8 2 14 -2
14 -4 -1 -56 -32 -117 -71z m96 9 c1 -7 3 -24 5 -38 3 -14 5 -44 6 -67 1 -24
5 -38 9 -32 3 6 16 -16 27 -49 19 -56 19 -62 4 -74 -32 -25 -77 -55 -112 -73
-19 -10 -39 -24 -45 -30 -5 -7 -37 -27 -70 -45 -33 -18 -63 -37 -66 -42 -3 -5
-14 -6 -25 -2 -14 4 -15 3 -6 -4 10 -7 5 -13 -21 -25 -19 -9 -40 -23 -47 -32
-7 -8 -21 -15 -32 -15 -12 0 -17 -4 -12 -12 4 -7 3 -8 -5 -4 -6 4 -27 -6 -48
-23 -21 -17 -42 -31 -48 -31 -6 0 -22 -10 -35 -22 -14 -13 -26 -22 -27 -21 -3
3 -120 -70 -148 -93 -11 -9 -32 -20 -47 -26 -16 -5 -28 -14 -28 -19 0 -5 -10
-14 -22 -20 -30 -13 -56 -29 -96 -57 -17 -13 -32 -20 -32 -16 0 3 -6 1 -14 -5
-11 -9 -20 -9 -34 -2 -11 6 -22 8 -25 5 -5 -5 -64 31 -77 47 -8 9 -54 33 -61
32 -4 -1 -17 9 -29 22 -13 14 -29 25 -37 25 -7 0 -13 5 -13 11 0 5 -4 7 -10 4
-5 -3 -10 -2 -10 2 0 5 -17 17 -37 28 -21 11 -44 26 -51 32 -13 13 -28 17 -46
14 -5 -1 -3 5 4 14 11 13 10 14 -5 9 -9 -4 -20 -3 -24 3 -3 5 -22 16 -41 25
-19 9 -45 26 -57 38 -13 11 -23 18 -23 15 0 -3 -9 4 -20 15 -12 12 -25 18 -30
15 -5 -3 -15 3 -21 14 -7 10 -19 17 -26 14 -7 -3 -13 0 -13 6 0 6 -3 10 -7 9
-9 -3 -65 32 -75 47 -4 5 -8 6 -8 2 0 -4 -11 4 -25 17 -21 21 -24 30 -15 45 5
11 7 28 4 38 -5 15 -4 16 6 3 9 -12 11 -10 6 13 -16 72 -17 83 -7 62 8 -16 10
-10 10 27 1 26 -4 48 -10 50 -8 3 -9 15 -4 38 5 19 10 29 12 23 3 -7 9 -13 14
-13 6 0 7 6 4 13 -4 6 1 3 9 -7 9 -11 16 -16 16 -10 0 5 4 4 8 -2 8 -13 93
-68 105 -69 4 0 11 -5 15 -10 4 -6 20 -16 35 -23 15 -6 30 -18 33 -26 3 -8 12
-12 20 -9 8 3 14 1 14 -5 0 -5 9 -12 20 -15 11 -3 24 -15 28 -28 6 -15 11 -18
16 -11 5 8 16 6 36 -10 16 -12 26 -26 23 -31 -4 -6 0 -8 10 -4 14 5 56 -17
139 -74 15 -11 31 -19 36 -19 4 0 17 -8 28 -17 11 -10 35 -27 54 -37 19 -11
37 -22 40 -25 3 -4 17 -14 32 -23 25 -17 29 -17 72 3 25 11 46 24 46 28 0 10
47 42 64 45 7 1 23 11 36 23 12 12 27 20 32 17 4 -3 8 -1 8 5 0 6 11 13 25 17
14 3 22 10 19 15 -5 9 0 11 29 13 6 1 18 9 25 19 7 9 32 27 55 38 37 19 94 56
107 69 3 3 21 14 40 24 19 11 39 25 43 33 4 7 13 13 18 13 6 0 30 14 55 30 24
17 44 28 44 24 0 -4 9 1 20 11 11 10 20 14 20 10 0 -5 9 1 21 13 11 12 24 20
30 17 5 -4 9 1 9 9 0 9 6 13 14 10 8 -3 17 0 22 7 5 8 3 10 -6 4 -9 -5 -11 -4
-6 3 4 7 12 12 17 12 12 0 93 52 97 63 6 12 42 8 43 -5z m-1744 -210 c-3 -8
-6 -5 -6 6 -1 11 2 17 5 13 3 -3 4 -12 1 -19z"/>
<path d="M5533 2200 c0 -25 2 -35 4 -22 2 12 2 32 0 45 -2 12 -4 2 -4 -23z"/>
<path d="M5531 1944 c0 -11 3 -14 6 -6 3 7 2 16 -1 19 -3 4 -6 -2 -5 -13z"/>
<path d="M5533 1690 c0 -25 2 -35 4 -22 2 12 2 32 0 45 -2 12 -4 2 -4 -23z"/>
<path d="M2768 1503 c7 -3 16 -2 19 1 4 3 -2 6 -13 5 -11 0 -14 -3 -6 -6z"/>
<path d="M3978 1493 c7 -3 16 -2 19 1 4 3 -2 6 -13 5 -11 0 -14 -3 -6 -6z"/>
<path d="M3708 1303 c7 -3 16 -2 19 1 4 3 -2 6 -13 5 -11 0 -14 -3 -6 -6z"/>
<path d="M3238 1023 c7 -3 16 -2 19 1 4 3 -2 6 -13 5 -11 0 -14 -3 -6 -6z"/>
<path d="M3597 759 c7 -7 15 -10 18 -7 3 3 -2 9 -12 12 -14 6 -15 5 -6 -5z"/>
<path d="M3375 720 c-3 -5 -1 -10 4 -10 6 0 11 5 11 10 0 6 -2 10 -4 10 -3 0
-8 -4 -11 -10z"/>
</g>
</svg>
